<svg width="132.75" height="97.5" viewBox="0 0 177 130" fill="none" xmlns="http://www.w3.org/2000/svg">
<path d="M120.103 1.64142C115.27 1.64142 109.648 5.03367 103.238 11.8182L107.73 11.3805C111.04 11.0887 113.904 10.4686 116.32 9.5202C120.734 7.76936 122.94 5.83614 122.94 3.72054C122.94 2.33446 121.995 1.64142 120.103 1.64142ZM35.7788 109.318C36.8821 109.756 38.1955 109.975 39.7192 109.975C43.9223 109.975 48.3618 108.552 53.0377 105.707C57.7662 102.935 61.6277 99.6521 64.6224 95.8586C67.6697 92.0651 69.1933 88.6728 69.1933 85.6818C69.1933 81.3777 65.8571 79.2256 59.1847 79.2256C58.3441 79.2256 57.7136 79.2621 57.2933 79.335C48.6245 92.6122 41.4529 102.607 35.7788 109.318ZM48.7033 42.7862C48.7033 45.6313 49.4913 47.9293 51.0675 49.6801C52.6437 51.358 54.9554 52.197 58.0026 52.197C61.0498 52.197 64.4911 50.3367 68.3264 46.6162C72.2143 42.8956 75.4717 38.2997 78.0986 32.8283C80.7781 27.284 82.1178 22.1409 82.1178 17.399L82.039 15.6481C71.2686 17.399 63.02 21.0101 57.2933 26.4815C51.5666 31.8799 48.7033 37.3148 48.7033 42.7862ZM28.6861 105.16L29.3953 104.503C30.0258 105.525 30.9715 106.51 32.2324 107.458C37.4863 100.746 44.0273 91.6274 51.8556 80.101C46.339 81.3412 40.4547 83.858 34.2026 87.6515C27.9505 91.518 22.434 95.6762 17.653 100.126C12.872 104.576 8.90529 109.026 5.75297 113.476C2.54812 117.926 0.945694 121.538 0.945694 124.31C0.945694 127.082 2.78454 128.468 6.46225 128.468C12.4516 128.468 20.7002 121.902 31.2079 108.771C29.8419 107.677 29.0013 106.473 28.6861 105.16ZM57.9238 78.3502C58.3441 78.2772 59.0008 78.2407 59.894 78.2407C67.7222 78.2407 71.6364 80.6481 71.6364 85.463C71.6364 88.6728 69.9551 92.284 66.5926 96.2963C63.2827 100.382 59.0008 103.883 53.747 106.801C48.5456 109.792 43.5807 111.288 38.8523 111.288C37.171 111.288 35.7525 111.069 34.5967 110.631C23.6161 123.544 13.949 130 5.59536 130C1.86512 130 0 128.249 0 124.747C0 122.34 0.919425 119.349 2.75827 115.774C4.54459 112.2 7.11898 108.479 10.4814 104.613C13.8439 100.746 17.653 97.0258 21.9086 93.4512C26.1117 89.9495 30.9452 86.8855 36.4092 84.2593C41.8732 81.5601 47.311 79.7727 52.7225 78.8973C54.0359 76.9276 56.584 73.0976 60.3668 67.4074C64.2021 61.6442 66.9867 57.486 68.7205 54.9327C70.4542 52.3793 72.9761 48.7318 76.286 43.9899C79.5959 39.1751 82.3279 35.3086 84.482 32.3906C90.524 24.3659 95.5151 18.2744 99.4555 14.1162C97.7217 14.335 95.1474 14.5174 91.7324 14.6633C88.3173 14.8092 85.454 15.0645 83.1423 15.4293C83.1948 15.7941 83.2211 16.3412 83.2211 17.0707C83.2211 20.8642 82.4068 24.9495 80.7781 29.3266C79.1494 33.7037 77.0741 37.6796 74.5522 41.2542C72.0829 44.7559 69.2196 47.7104 65.9622 50.1178C62.7573 52.4523 59.6576 53.6195 56.6629 53.6195C53.7207 53.6195 51.3039 52.4888 49.4125 50.2273C47.5737 47.8928 46.6543 45.1571 46.6543 42.0202C46.6543 38.8833 47.311 35.8923 48.6245 33.0471C49.9379 30.202 51.9081 27.4299 54.535 24.7306C57.162 22.0314 60.8134 19.6605 65.4893 17.6178C70.1653 15.5022 75.5505 14.0432 81.645 13.2407C80.0163 5.87262 74.2107 2.18856 64.2284 2.18856C61.6015 2.18856 58.8169 2.80864 55.8748 4.04882C52.9852 5.289 50.3845 6.78451 48.0728 8.53535C43.3969 12.1829 39.7454 15.5022 37.1185 18.4933L35.5423 20.3535L35.0695 19.0404C35.9627 17.8002 37.7227 15.9035 40.3496 13.3502C42.9766 10.7969 45.3933 8.71773 47.5999 7.11279C49.8591 5.50786 52.5911 4.04883 55.796 2.73569C59.0008 1.42256 62.1006 0.765996 65.0953 0.765996C75.3403 0.765996 81.2509 4.88777 82.8271 13.1313C85.454 12.7666 88.1072 12.5477 90.7867 12.4747C93.5187 12.4018 97.1176 12.2194 101.583 11.9276C109.464 3.97587 116.11 0 121.522 0C124.306 0 125.699 0.765994 125.699 2.29798C125.699 4.26768 123.781 6.49271 119.946 8.97307C116.163 11.3805 111.776 12.8395 106.785 13.3502C104.368 13.642 102.529 13.8244 101.268 13.8973C98.1683 17.399 94.6745 21.8855 90.7867 27.3569C86.8988 32.8283 83.5101 37.862 80.6204 42.4579C77.7308 46.9809 73.843 53.1089 68.9569 60.8418C64.1233 68.5746 60.4456 74.4108 57.9238 78.3502Z" fill="url(#paint0_linear)"/>
<path d="M76.4061 85.3535C78.4025 85.3535 81.0557 83.9675 84.3657 81.1953C87.7281 78.3502 90.5127 75.6145 92.7193 72.9882C94.9785 70.362 96.108 68.83 96.108 68.3923C96.108 67.9545 95.714 67.5898 94.9259 67.298C94.1904 67.0062 93.1659 66.8603 91.8524 66.8603C90.5389 66.8603 88.8052 67.5898 86.6511 69.0488C84.497 70.4349 82.6319 72.1128 81.0557 74.0825C79.4796 76.0522 78.1661 77.9854 77.1153 79.8822C76.0646 81.7789 75.5392 83.165 75.5392 84.0404C75.5392 84.9158 75.8281 85.3535 76.4061 85.3535ZM97.5266 66.9697C98.5773 65.8025 99.1553 65.2189 99.2604 65.2189C100.679 65.4377 101.414 65.6201 101.467 65.766C101.52 65.839 101.546 65.9484 101.546 66.0943C101.546 66.2402 101.336 66.7144 100.915 67.5168C100.495 68.2464 99.2604 70.0337 97.2113 72.8788C92.1151 79.8092 89.567 84.0039 89.567 85.463C89.567 86.0466 89.7509 86.3384 90.1186 86.3384C92.6405 86.3384 97.369 83.0191 104.304 76.3805L104.462 78.0219C97.474 84.3687 92.5354 87.5421 89.6458 87.5421C88.2272 87.5421 87.518 86.6302 87.518 84.8064C87.518 82.9097 88.3323 80.4658 89.961 77.4747C83.7615 83.8215 78.9279 87.0314 75.4604 87.1044C74.1994 87.1044 73.569 86.0466 73.569 83.931C73.569 80.1375 75.3028 76.0887 78.7703 71.7845C82.2904 67.4804 86.9138 65.3283 92.6405 65.3283C94.5319 65.3283 96.1606 65.8754 97.5266 66.9697Z" fill="url(#paint1_linear)"/>
<path d="M149.727 25.0589C149.727 24.5483 149.464 24.2929 148.939 24.2929C146.837 24.2929 141.636 29.509 133.335 39.9411C125.086 50.3732 117.678 60.477 111.111 70.2525C118.677 63.468 127.004 54.8232 136.093 44.3182C145.182 33.8131 149.727 27.3934 149.727 25.0589ZM115.84 84.4781C115.84 85.4265 116.181 85.9007 116.864 85.9007C117.6 85.9007 118.677 85.463 120.095 84.5875C121.514 83.7121 122.775 82.8367 123.878 81.9613C124.981 81.0129 126.295 79.8822 127.818 78.569C129.395 77.1829 130.235 76.4534 130.34 76.3805L130.498 78.0219C123.405 84.5875 118.44 87.8704 115.603 87.8704C114.237 87.8704 113.554 86.922 113.554 85.0253C113.554 83.1285 114.395 81.0494 116.076 78.7879C117.81 76.4534 119.517 74.3743 121.198 72.5505C122.932 70.7267 123.799 69.4136 123.799 68.6111C123.799 68.3193 123.615 68.1734 123.247 68.1734C122.039 68.1734 118.755 70.289 113.397 74.5202C108.038 78.6785 104.544 81.7424 102.915 83.7121L100.078 86.995C99.8678 87.2868 99.3424 87.4327 98.5018 87.4327C97.6612 87.4327 97.2409 87.2138 97.2409 86.7761C97.2409 86.5572 97.346 86.2654 97.5561 85.9007C103.073 77.2924 109.246 68.2828 116.076 58.8721C122.906 49.4613 129.578 41.0718 136.093 33.7037C142.661 26.2626 147.126 22.5421 149.491 22.5421C150.751 22.5421 151.382 23.0892 151.382 24.1835C151.382 26.518 148.729 31.041 143.422 37.7525C138.168 44.3911 132.258 51.0662 125.691 57.7778C119.123 64.4893 113.475 69.8148 108.747 73.7542C106.908 76.6723 105.857 78.5326 105.595 79.335C105.805 79.335 105.962 79.2985 106.067 79.2256C109.43 75.9428 112.924 73.0247 116.549 70.4714C120.174 67.9181 122.459 66.6414 123.405 66.6414C124.351 66.6414 124.981 66.8967 125.296 67.4074C125.664 67.9181 125.848 68.4652 125.848 69.0488C125.848 70.7997 125.008 72.7694 123.326 74.9579C121.698 77.1465 120.043 79.1162 118.361 80.867C116.68 82.6179 115.84 83.8216 115.84 84.4781Z" fill="url(#paint2_linear)"/>
<path d="M146.346 56.2458C146.346 57.2671 145.926 58.252 145.085 59.2003C144.245 60.1487 143.457 60.6229 142.721 60.6229C142.038 60.6229 141.697 60.2217 141.697 59.4192C141.697 58.6167 142.117 57.7048 142.957 56.6835C143.798 55.5892 144.56 55.0421 145.243 55.0421C145.978 55.0421 146.346 55.4433 146.346 56.2458ZM139.648 68.064C132.555 76.9641 129.008 82.5449 129.008 84.8064C129.008 85.5359 129.376 85.9007 130.112 85.9007C130.795 85.9007 131.846 85.463 133.264 84.5875C134.683 83.7121 135.944 82.8367 137.047 81.9613C138.15 81.0129 139.464 79.8822 140.987 78.569C142.563 77.1829 143.404 76.4534 143.509 76.3805L143.667 78.0219C141.25 80.2104 138.492 82.399 135.392 84.5875C132.292 86.7761 129.954 87.8704 128.378 87.8704C126.749 87.8704 125.935 86.9585 125.935 85.1347C125.935 83.6027 126.881 81.3047 128.772 78.2407C130.663 75.1038 132.555 72.3681 134.446 70.0337L137.283 66.532C137.546 66.2402 138.045 66.1308 138.781 66.2037C139.516 66.2767 139.884 66.6414 139.884 67.298C139.884 67.5898 139.805 67.8451 139.648 68.064Z" fill="url(#paint3_linear)"/>
<path d="M157.062 65.4377C158.165 65.4377 158.717 66.2767 158.717 67.9546C158.717 69.5595 157.876 71.9304 156.195 75.0673C162.184 69.3042 166.991 66.4226 170.617 66.4226C172.035 66.4226 172.744 67.2615 172.744 68.9394C172.744 70.6173 172.219 72.3681 171.168 74.1919C170.117 75.9428 168.962 77.4747 167.701 78.7879C164.338 82.1437 162.657 84.2593 162.657 85.1347C162.657 85.6453 162.946 85.9007 163.524 85.9007C164.154 85.9007 165.179 85.463 166.597 84.5875C168.016 83.7121 169.277 82.8367 170.38 81.9613C171.483 81.0129 172.797 79.8822 174.321 78.569C175.897 77.1829 176.737 76.4534 176.842 76.3805L177 78.0219C169.907 84.5875 164.942 87.8704 162.105 87.8704C160.739 87.8704 160.056 86.9585 160.056 85.1347C160.056 83.8945 160.608 82.4355 161.711 80.7576C162.867 79.0067 164.102 77.4018 165.415 75.9428C169.04 72.1493 170.853 69.6324 170.853 68.3923C170.853 68.0275 170.564 67.8451 169.986 67.8451C168.042 67.8451 165.153 69.3042 161.317 72.2222C157.482 75.1403 153.226 79.8822 148.55 86.4478C148.235 86.8855 147.631 87.1044 146.738 87.1044C145.897 87.1044 145.477 86.7761 145.477 86.1195C145.477 85.9007 147.289 83.2015 150.915 78.0219C154.54 72.8423 156.352 69.4865 156.352 67.9546C156.352 67.5898 156.168 67.4074 155.801 67.4074C155.485 67.4074 154.776 67.8816 153.673 68.83C152.622 69.7783 150.967 71.3103 148.708 73.4259C146.501 75.4686 144.61 77.1829 143.034 78.569L142.797 77.037C143.585 76.3075 144.663 75.2862 146.029 73.9731C147.395 72.6599 148.524 71.6021 149.417 70.7997C150.31 69.9242 151.282 69.0124 152.333 68.064C154.382 66.3131 155.958 65.4377 157.062 65.4377Z" fill="url(#paint4_linear)"/>
<defs>
<linearGradient id="paint0_linear" x1="105.356" y1="-29.9923" x2="105.356" y2="140.988" gradientUnits="userSpaceOnUse">
<stop stop-color="#A3D22C"/>
<stop offset="1" stop-color="#0A6C44"/>
</linearGradient>
<linearGradient id="paint1_linear" x1="105.356" y1="-29.9923" x2="105.356" y2="140.988" gradientUnits="userSpaceOnUse">
<stop stop-color="#A3D22C"/>
<stop offset="1" stop-color="#0A6C44"/>
</linearGradient>
<linearGradient id="paint2_linear" x1="105.356" y1="-29.9923" x2="105.356" y2="140.988" gradientUnits="userSpaceOnUse">
<stop stop-color="#A3D22C"/>
<stop offset="1" stop-color="#0A6C44"/>
</linearGradient>
<linearGradient id="paint3_linear" x1="105.356" y1="-29.9923" x2="105.356" y2="140.988" gradientUnits="userSpaceOnUse">
<stop stop-color="#A3D22C"/>
<stop offset="1" stop-color="#0A6C44"/>
</linearGradient>
<linearGradient id="paint4_linear" x1="105.356" y1="-29.9923" x2="105.356" y2="140.988" gradientUnits="userSpaceOnUse">
<stop stop-color="#A3D22C"/>
<stop offset="1" stop-color="#0A6C44"/>
</linearGradient>
</defs>
</svg>
