<svg width="19" height="19" viewBox="0 0 19 19" fill="none" xmlns="http://www.w3.org/2000/svg">
<path d="M5.064 6.556V19H1.344V6.556H5.064ZM5.448 3.148C5.448 3.444 5.388 3.724 5.268 3.988C5.148 4.244 4.984 4.472 4.776 4.672C4.568 4.864 4.324 5.02 4.044 5.14C3.772 5.252 3.48 5.308 3.168 5.308C2.864 5.308 2.58 5.252 2.316 5.14C2.052 5.02 1.816 4.864 1.608 4.672C1.408 4.472 1.248 4.244 1.128 3.988C1.016 3.724 0.96 3.444 0.96 3.148C0.96 2.844 1.016 2.56 1.128 2.296C1.248 2.032 1.408 1.8 1.608 1.6C1.816 1.4 2.052 1.244 2.316 1.132C2.58 1.02 2.864 0.964 3.168 0.964C3.48 0.964 3.772 1.02 4.044 1.132C4.324 1.244 4.568 1.4 4.776 1.6C4.984 1.8 5.148 2.032 5.268 2.296C5.388 2.56 5.448 2.844 5.448 3.148ZM11.0904 7.9C11.3304 7.676 11.5784 7.468 11.8344 7.276C12.0904 7.084 12.3624 6.924 12.6504 6.796C12.9464 6.66 13.2624 6.556 13.5984 6.484C13.9424 6.404 14.3144 6.364 14.7144 6.364C15.3944 6.364 15.9944 6.484 16.5144 6.724C17.0424 6.956 17.4864 7.284 17.8464 7.708C18.2064 8.124 18.4784 8.624 18.6624 9.208C18.8464 9.784 18.9384 10.412 18.9384 11.092V19H15.2184V11.092C15.2184 10.484 15.0784 10.012 14.7984 9.676C14.5184 9.332 14.1064 9.16 13.5624 9.16C13.1544 9.16 12.7704 9.248 12.4104 9.424C12.0584 9.592 11.7144 9.824 11.3784 10.12V19H7.65844V6.556H9.96244C10.4264 6.556 10.7304 6.764 10.8744 7.18L11.0904 7.9Z" fill="black"/>
</svg>
