<svg width="22" height="18" viewBox="0 0 22 18" fill="none" xmlns="http://www.w3.org/2000/svg">
<path d="M21.456 0.487999C20.912 0.519999 20.52 0.583999 20.28 0.68C20.04 0.776 19.872 0.96 19.776 1.232C19.696 1.504 19.656 1.944 19.656 2.552V14.456C19.656 15.064 19.696 15.504 19.776 15.776C19.872 16.048 20.04 16.232 20.28 16.328C20.536 16.424 20.928 16.488 21.456 16.52V17C20.576 16.952 19.32 16.928 17.688 16.928C15.976 16.928 14.712 16.952 13.896 17V16.52C14.472 16.488 14.888 16.424 15.144 16.328C15.416 16.232 15.6 16.048 15.696 15.776C15.792 15.504 15.84 15.064 15.84 14.456V1.904L10.056 17.024H9.672L3.192 1.568V13.064C3.192 14.008 3.24 14.704 3.336 15.152C3.432 15.584 3.64 15.904 3.96 16.112C4.28 16.304 4.8 16.44 5.52 16.52V17C4.896 16.952 4.032 16.928 2.928 16.928C2.048 16.928 1.352 16.952 0.84 17V16.52C1.368 16.44 1.752 16.304 1.992 16.112C2.248 15.92 2.416 15.616 2.496 15.2C2.592 14.784 2.64 14.168 2.64 13.352V2.552C2.64 1.944 2.592 1.504 2.496 1.232C2.416 0.96 2.248 0.776 1.992 0.68C1.752 0.583999 1.368 0.519999 0.84 0.487999V0.0079999C1.352 0.0559993 2.048 0.079999 2.928 0.079999C4.4 0.079999 5.664 0.0559993 6.72 0.0079999L11.568 11.696L15.984 0.079999H17.688C19.32 0.079999 20.576 0.0559993 21.456 0.0079999V0.487999Z" fill="black"/>
</svg>
